<svg width="329" height="329" viewBox="0 0 329 329" fill="none" xmlns="http://www.w3.org/2000/svg">
<path fill-rule="evenodd" clip-rule="evenodd" d="M165.622 157.024C190.829 157.024 218.799 140.07 215.263 107.462C211.726 74.8546 190.829 57.9009 165.622 57.9009C140.414 57.9009 119.681 72.7631 114.274 107.462C108.866 142.162 140.414 157.024 165.622 157.024Z" fill="#2C2B29"/>
<path fill-rule="evenodd" clip-rule="evenodd" d="M165.228 147.58C185.442 147.58 207.87 133.985 205.034 107.838C202.199 81.6903 185.442 68.0955 165.228 68.0955C145.015 68.0955 128.389 80.0132 124.053 107.838C119.717 135.662 145.015 147.58 165.228 147.58Z" fill="white"/>
<path fill-rule="evenodd" clip-rule="evenodd" d="M125.519 93.3062C128.267 93.3158 129.461 83.0204 134.369 78.3329C138.875 74.0298 149.226 72.5543 149.226 67.5793C149.226 57.1849 138.462 55 128.958 55C119.453 55 111 65.543 111 75.9374C111 86.3318 120.248 93.2878 125.519 93.3062Z" fill="#2C2B29"/>
<path fill-rule="evenodd" clip-rule="evenodd" d="M204.293 93.3062C201.545 93.3158 200.351 83.0204 195.443 78.3329C190.937 74.0298 180.586 72.5543 180.586 67.5793C180.586 57.1849 191.35 55 200.855 55C210.359 55 218.812 65.543 218.812 75.9374C218.812 86.3318 209.565 93.2878 204.293 93.3062Z" fill="#2C2B29"/>
<path fill-rule="evenodd" clip-rule="evenodd" d="M186.949 128.059C194.107 126.273 197.092 123.123 197.092 112.946C197.092 102.768 192.532 92.4339 184.681 92.4339C176.829 92.4339 171.615 99.7829 171.615 109.961C171.615 120.139 179.79 129.845 186.949 128.059Z" fill="#2B2A28"/>
<path fill-rule="evenodd" clip-rule="evenodd" d="M184.328 115.147C186.276 115.147 186.855 114.627 187.736 113.459C188.723 112.149 189.459 110.63 189.219 107.492C188.816 102.249 186.704 99.8371 182.572 99.8371C178.439 99.8371 177.633 103.161 177.633 107.492C177.633 111.823 180.195 115.147 184.328 115.147Z" fill="white"/>
<path fill-rule="evenodd" clip-rule="evenodd" d="M142.798 128.059C135.639 126.273 132.654 123.123 132.654 112.946C132.654 102.768 137.214 92.4339 145.066 92.4339C152.918 92.4339 158.131 99.7829 158.131 109.961C158.131 120.139 149.957 129.845 142.798 128.059Z" fill="#2B2A28"/>
<path fill-rule="evenodd" clip-rule="evenodd" d="M145.419 115.147C143.471 115.147 142.891 114.627 142.011 113.459C141.024 112.149 140.287 110.63 140.528 107.492C140.93 102.249 143.042 99.8371 147.175 99.8371C151.307 99.8371 152.113 103.161 152.113 107.492C152.113 111.823 149.551 115.147 145.419 115.147Z" fill="white"/>
<path fill-rule="evenodd" clip-rule="evenodd" d="M165.247 135.062C169.173 135.062 172.98 129.003 172.98 126.404C172.98 123.806 169.116 123.385 165.191 123.385C161.265 123.385 157.401 123.806 157.401 126.404C157.401 129.003 161.322 135.062 165.247 135.062Z" fill="#2C2B29"/>
<path d="M93.944 185.992C94.648 186.76 95.192 187.688 95.576 188.776C95.96 189.864 96.152 190.952 96.152 192.04C93.976 192.04 92.344 192.424 91.256 193.192C90.232 193.96 89.72 195.208 89.72 196.936V242.056C89.72 243.848 90.2 245.096 91.16 245.8C92.184 246.504 93.848 246.856 96.152 246.856C96.152 248.008 95.96 249.128 95.576 250.216C95.192 251.304 94.648 252.232 93.944 253H70.136C69.496 252.232 68.984 251.304 68.6 250.216C68.216 249.128 68.024 248.008 68.024 246.856C70.264 246.856 71.928 246.504 73.016 245.8C74.104 245.032 74.648 243.784 74.648 242.056V202.312L58.328 243.496C57.496 245.48 56.344 246.856 54.872 247.624C53.4 248.328 51.48 248.68 49.112 248.68L30.104 202.312V242.056C30.104 243.784 30.712 245.032 31.928 245.8C33.208 246.504 35.128 246.856 37.688 246.856C37.688 248.008 37.496 249.128 37.112 250.216C36.728 251.304 36.216 252.232 35.576 253H15.608C14.968 252.232 14.456 251.304 14.072 250.216C13.688 249.128 13.496 248.008 13.496 246.856C15.864 246.856 17.592 246.504 18.68 245.8C19.768 245.032 20.312 243.784 20.312 242.056V196.936C20.312 195.208 19.736 193.96 18.584 193.192C17.432 192.424 15.736 192.04 13.496 192.04C13.496 190.952 13.688 189.864 14.072 188.776C14.456 187.688 15 186.76 15.704 185.992H30.776C33.784 185.992 36.184 186.44 37.976 187.336C39.768 188.168 41.208 189.864 42.296 192.424L52.472 217.48L56.312 229.384L59.96 217.48L72.056 185.992H93.944ZM119.584 254.248C112.544 254.248 106.912 252.04 102.688 247.624C98.4642 243.144 96.3522 236.776 96.3522 228.52C96.3522 222.632 97.3442 217.608 99.3282 213.448C101.376 209.288 104.224 206.152 107.872 204.04C111.52 201.928 115.744 200.872 120.544 200.872C125.152 200.872 129.184 201.896 132.64 203.944C136.16 205.928 138.88 208.872 140.8 212.776C142.784 216.68 143.776 221.416 143.776 226.984C143.776 232.808 142.752 237.768 140.704 241.864C138.72 245.96 135.904 249.064 132.256 251.176C128.608 253.224 124.384 254.248 119.584 254.248ZM120.352 247.336C122.592 247.336 124.256 246.056 125.344 243.496C126.432 240.936 126.976 236.2 126.976 229.288C126.976 223.464 126.688 218.984 126.112 215.848C125.536 212.712 124.736 210.568 123.712 209.416C122.688 208.264 121.376 207.688 119.776 207.688C117.536 207.688 115.84 208.968 114.688 211.528C113.6 214.088 113.056 218.888 113.056 225.928C113.056 231.688 113.344 236.136 113.92 239.272C114.496 242.344 115.296 244.456 116.32 245.608C117.408 246.76 118.752 247.336 120.352 247.336ZM198.294 250.408C197.334 251.368 195.606 252.136 193.11 252.712C190.678 253.288 188.342 253.576 186.102 253.576C183.35 253.576 181.302 253.064 179.958 252.04C178.678 251.016 178.038 249.384 178.038 247.144V217.192C178.038 214.696 177.494 212.904 176.406 211.816C175.318 210.728 173.878 210.184 172.086 210.184C169.462 210.184 167.254 211.24 165.462 213.352V242.632C165.462 244.488 165.846 245.832 166.614 246.664C167.446 247.496 168.822 247.912 170.742 247.912C170.742 249.832 170.006 251.528 168.534 253H146.742C145.206 251.464 144.438 249.768 144.438 247.912C146.358 247.912 147.734 247.496 148.566 246.664C149.398 245.832 149.814 244.488 149.814 242.632V214.6C149.814 212.872 149.334 211.656 148.374 210.952C147.414 210.184 145.75 209.8 143.382 209.8V205.48C145.43 204.328 148.31 203.272 152.022 202.312C155.798 201.352 158.646 200.872 160.566 200.872C162.038 200.872 163.158 201.352 163.926 202.312C164.758 203.208 165.238 204.936 165.366 207.496C167.03 205.448 169.11 203.848 171.606 202.696C174.102 201.48 176.918 200.872 180.054 200.872C184.662 200.872 188.054 202.056 190.23 204.424C192.47 206.728 193.59 210.536 193.59 215.848V242.056C193.59 245.192 195.126 247.048 198.198 247.624L198.294 250.408ZM219.926 185.128C219.926 187.88 219.062 190.088 217.334 191.752C215.67 193.352 213.43 194.152 210.614 194.152C207.862 194.152 205.654 193.352 203.99 191.752C202.39 190.088 201.59 187.88 201.59 185.128C201.59 182.44 202.422 180.264 204.086 178.6C205.814 176.936 208.054 176.104 210.806 176.104C213.558 176.104 215.766 176.936 217.43 178.6C219.094 180.264 219.926 182.44 219.926 185.128ZM218.102 242.632C218.102 244.488 218.55 245.832 219.446 246.664C220.406 247.432 221.846 247.816 223.766 247.816C223.766 249.8 223.03 251.528 221.558 253H199.862C198.39 251.528 197.654 249.8 197.654 247.816C199.574 247.816 200.95 247.432 201.782 246.664C202.678 245.832 203.126 244.456 203.126 242.536V214.696C203.126 212.904 202.678 211.624 201.782 210.856C200.95 210.088 199.286 209.704 196.79 209.704V205.48C198.326 204.52 200.918 203.528 204.566 202.504C208.278 201.416 211.414 200.872 213.974 200.872C215.446 200.872 216.502 201.224 217.142 201.928C217.782 202.568 218.102 203.688 218.102 205.288V242.632ZM260.968 240.808C261.48 241.384 261.896 242.152 262.216 243.112C262.6 244.072 262.792 244.904 262.792 245.608C262.792 247.016 262.056 248.392 260.584 249.736C259.112 251.08 257.128 252.2 254.632 253.096C252.2 253.992 249.544 254.44 246.664 254.44C241.992 254.44 237.864 253.384 234.28 251.272C230.696 249.16 227.912 246.12 225.928 242.152C223.944 238.184 222.952 233.48 222.952 228.04C222.952 222.472 224.008 217.64 226.12 213.544C228.296 209.448 231.272 206.312 235.048 204.136C238.888 201.96 243.176 200.872 247.912 200.872C252.648 200.872 256.328 202.024 258.952 204.328C261.64 206.568 262.984 209.448 262.984 212.968C262.984 215.976 262.216 218.344 260.68 220.072C259.144 221.736 257.16 222.568 254.728 222.568C252.744 222.568 251.08 221.832 249.736 220.36C248.392 218.888 247.72 217.096 247.72 214.984C247.72 213.576 247.976 212.392 248.488 211.432C249 210.472 249.704 209.608 250.6 208.84C249.576 208.264 248.648 207.976 247.816 207.976C245.64 207.976 243.72 209.288 242.056 211.912C240.392 214.472 239.56 218.728 239.56 224.68C239.56 231.464 240.552 236.36 242.536 239.368C244.52 242.312 247.432 243.784 251.272 243.784C253.064 243.784 254.824 243.528 256.552 243.016C258.344 242.504 259.816 241.768 260.968 240.808ZM262.112 239.464C262.112 235.176 263.52 231.784 266.336 229.288C269.152 226.792 273.312 225.544 278.816 225.544C280.736 225.544 282.688 225.736 284.672 226.12C286.72 226.504 288.384 227.016 289.664 227.656V214.888C289.664 212.328 289.024 210.504 287.744 209.416C286.464 208.264 284.736 207.688 282.56 207.688C280.448 207.688 278.72 208.2 277.376 209.224C278.592 209.608 279.488 210.28 280.064 211.24C280.704 212.136 281.024 213.16 281.024 214.312C281.024 216.36 280.288 218.024 278.816 219.304C277.344 220.584 275.488 221.224 273.248 221.224C270.816 221.224 268.864 220.52 267.392 219.112C265.92 217.704 265.184 215.88 265.184 213.64C265.184 211.4 265.952 209.288 267.488 207.304C269.024 205.32 271.36 203.72 274.496 202.504C277.696 201.288 281.632 200.68 286.304 200.68C292.64 200.68 297.44 201.992 300.704 204.616C303.968 207.176 305.6 210.952 305.6 215.944V241.384C305.6 244.456 307.072 246.312 310.016 246.952V250.024C309.184 251.176 307.808 252.072 305.888 252.712C303.968 253.352 302.016 253.672 300.032 253.672C295.68 253.672 292.608 252.168 290.816 249.16C289.344 250.44 287.552 251.528 285.44 252.424C283.328 253.256 280.928 253.672 278.24 253.672C273.44 253.672 269.536 252.36 266.528 249.736C263.584 247.048 262.112 243.624 262.112 239.464ZM289.664 235.048C288.96 234.6 288.096 234.216 287.072 233.896C286.112 233.576 285.184 233.416 284.288 233.416C282.496 233.416 281.024 233.992 279.872 235.144C278.72 236.232 278.144 237.832 278.144 239.944C278.144 241.672 278.72 243.112 279.872 244.264C281.024 245.352 282.56 245.896 284.48 245.896C285.44 245.896 286.368 245.768 287.264 245.512C288.224 245.192 289.024 244.808 289.664 244.36V235.048Z" fill="#292E35"/>
</svg>
